<?xml version="1.0" encoding="UTF-8" standalone="no"?>
<svg xmlns:dc="http://purl.org/dc/elements/1.1/" xmlns:cc="http://creativecommons.org/ns#" xmlns:rdf="http://www.w3.org/1999/02/22-rdf-syntax-ns#" xmlns:svg="http://www.w3.org/2000/svg" xmlns="http://www.w3.org/2000/svg" xmlns:sodipodi="http://sodipodi.sourceforge.net/DTD/sodipodi-0.dtd" xmlns:inkscape="http://www.inkscape.org/namespaces/inkscape" version="1.1" x="0px" y="0px" viewBox="0 0 92.000015 88.300003" id="svg3761" sodipodi:docname="noun_938466_cc.svg" width="92.000015" height="88.300003" inkscape:version="0.92.2 5c3e80d, 2017-08-06">
  <metadata id="metadata3767">
    <rdf:RDF>
      <cc:Work rdf:about="">
        <dc:format>image/svg+xml</dc:format>
        <dc:type rdf:resource="http://purl.org/dc/dcmitype/StillImage"/>
        <dc:title/>
      </cc:Work>
    </rdf:RDF>
  </metadata>
  <defs id="defs3765"/>
  <sodipodi:namedview pagecolor="#ffffff" bordercolor="#666666" borderopacity="1" objecttolerance="10" gridtolerance="10" guidetolerance="10" inkscape:pageopacity="0" inkscape:pageshadow="2" inkscape:window-width="1405" inkscape:window-height="863" id="namedview3763" showgrid="false" fit-margin-top="6.3" fit-margin-right="10" fit-margin-bottom="10" fit-margin-left="10" inkscape:zoom="5.136" inkscape:cx="46.000007" inkscape:cy="25.711833" inkscape:window-x="0" inkscape:window-y="0" inkscape:window-maximized="0" inkscape:current-layer="svg3761"/>
  <g transform="translate(-3.999993,-960.06217)" id="g3755">
    <path style="color:#000000;text-indent:0;text-transform:none;direction:ltr;baseline-shift:baseline;display:inline;overflow:visible;visibility:visible;fill:#000000;fill-opacity:1;stroke:none;enable-background:accumulate" d="m 40.998593,966.36217 c -14.8989,0 -26.9986,12.09953 -26.9986,26.99861 0,14.89892 12.0997,26.99862 26.9986,26.99862 5.2818,0 10.2104,-1.5291 14.3743,-4.156 l 20.373902,20.4052 c 2.3381,2.3381 6.1615,2.3381 8.4996,0 2.3382,-2.3382 2.3381,-6.1615 0,-8.4996 l -20.405202,-20.374 c 2.6269,-4.1638 4.156,-9.09236 4.156,-14.37422 0,-14.89908 -12.0996,-26.99861 -26.9986,-26.99861 z m 0,1.9999 c 13.8182,0 24.9987,11.18047 24.9987,24.99871 0,13.81812 -11.1805,24.99872 -24.9987,24.99872 -13.8182,0 -24.9987,-11.1806 -24.9987,-24.99872 0,-13.81824 11.1805,-24.99871 24.9987,-24.99871 z m 21.6864,41.02913 20.155302,20.1552 c 1.5791,1.5791 1.5791,4.0769 0,5.656 -1.579,1.579 -4.0769,1.5791 -5.656,0 l -20.155302,-20.1552 c 2.1615,-1.5999 4.0562,-3.4946 5.656,-5.656 z" marker="none" visibility="visible" display="inline" overflow="visible" id="path3753" inkscape:connector-curvature="0"/>
  </g>
</svg>